<?xml version="1.0" encoding="UTF-8"?>
<svg width="163px" height="40px" viewBox="0 0 163 40" version="1.1" xmlns="http://www.w3.org/2000/svg" xmlns:xlink="http://www.w3.org/1999/xlink">
    <!-- Generator: Sketch 64 (93537) - https://sketch.com -->
    <title>Logo</title>
    <desc>Created with Sketch.</desc>
    <g id="Page-1" stroke="none" stroke-width="1" fill="none" fill-rule="evenodd">
        <g id="Home" transform="translate(-97.000000, -60.000000)" fill="#FFFFFF">
            <g id="Logo" transform="translate(97.000000, 60.000000)">
                <text id="Deep-Work-Scoreboard" font-family="IBMPlexSans-Bold, IBM Plex Sans" font-size="20" font-weight="bold" line-spacing="20">
                    <tspan x="56" y="20">Deep Work</tspan>
                    <tspan x="56" y="40">Scoreboard</tspan>
                </text>
                <g id="submarine" fill-rule="nonzero">
                    <g id="Group">
                        <g transform="translate(5.529954, 0.000000)">
                            <path d="M9.86175115,32.6267281 C7.98138249,32.6267281 6.4516129,31.0969585 6.4516129,29.2165899 C6.4516129,27.3362212 7.98138249,25.8064516 9.86175115,25.8064516 C11.7421198,25.8064516 13.2718894,27.3362212 13.2718894,29.2165899 C13.2718894,31.0969585 11.7421198,32.6267281 9.86175115,32.6267281 Z M9.86175115,27.0967742 C8.69290323,27.0967742 7.74193548,28.0476498 7.74193548,29.2165899 C7.74193548,30.38553 8.69290323,31.3364055 9.86175115,31.3364055 C11.0305991,31.3364055 11.9815668,30.38553 11.9815668,29.2165899 C11.9815668,28.0476498 11.0305991,27.0967742 9.86175115,27.0967742 Z" id="Shape"></path>
                            <path d="M19.078341,32.6267281 C17.1979724,32.6267281 15.6682028,31.0969585 15.6682028,29.2165899 C15.6682028,27.3362212 17.1979724,25.8064516 19.078341,25.8064516 C20.9587097,25.8064516 22.4884793,27.3362212 22.4884793,29.2165899 C22.4884793,31.0969585 20.9587097,32.6267281 19.078341,32.6267281 Z M19.078341,27.0967742 C17.9094009,27.0967742 16.9585253,28.0476498 16.9585253,29.2165899 C16.9585253,30.38553 17.9094009,31.3364055 19.078341,31.3364055 C20.2472811,31.3364055 21.1981567,30.38553 21.1981567,29.2165899 C21.1981567,28.0476498 20.2472811,27.0967742 19.078341,27.0967742 Z" id="Shape"></path>
                            <path d="M28.2949309,32.6267281 C26.4145622,32.6267281 24.8847926,31.0969585 24.8847926,29.2165899 C24.8847926,27.3362212 26.4145622,25.8064516 28.2949309,25.8064516 C30.1752995,25.8064516 31.7050691,27.3362212 31.7050691,29.2165899 C31.7050691,31.0969585 30.1752995,32.6267281 28.2949309,32.6267281 Z M28.2949309,27.0967742 C27.1259908,27.0967742 26.1751152,28.0476498 26.1751152,29.2165899 C26.1751152,30.38553 27.1259908,31.3364055 28.2949309,31.3364055 C29.463871,31.3364055 30.4147465,30.38553 30.4147465,29.2165899 C30.4147465,28.0476498 29.463871,27.0967742 28.2949309,27.0967742 Z" id="Shape"></path>
                            <path d="M27.3732719,40 L10.7834101,40 C4.83741935,40 0,35.1625806 0,29.2165899 C0,23.2705991 4.83741935,18.4331797 10.7834101,18.4331797 L11.0599078,18.4331797 L11.0599078,11.7050691 C11.0599078,11.3487558 11.3487558,11.0599078 11.7050691,11.0599078 L26.4516129,11.0599078 C26.8079263,11.0599078 27.0967742,11.3487558 27.0967742,11.7050691 L27.0967742,18.4331797 L27.3732719,18.4331797 C33.3192627,18.4331797 38.156682,23.2705991 38.156682,29.2165899 C38.156682,35.1625806 33.3192627,40 27.3732719,40 Z M10.7834101,19.7235023 C5.54894009,19.7235023 1.29032258,23.9821198 1.29032258,29.2165899 C1.29032258,34.4510599 5.54894009,38.7096774 10.7834101,38.7096774 L27.3732719,38.7096774 C32.6077419,38.7096774 36.8663594,34.4510599 36.8663594,29.2165899 C36.8663594,23.9821198 32.6077419,19.7235023 27.3732719,19.7235023 L26.4516129,19.7235023 C26.0952995,19.7235023 25.8064516,19.4346544 25.8064516,19.078341 L25.8064516,12.3502304 L12.3502304,12.3502304 L12.3502304,19.078341 C12.3502304,19.4346544 12.0613825,19.7235023 11.7050691,19.7235023 L10.7834101,19.7235023 Z" id="Shape"></path>
                            <path d="M26.4516129,17.8801843 L20.4608295,17.8801843 C19.342765,17.8801843 18.4331797,16.9705991 18.4331797,15.8525346 C18.4331797,14.73447 19.342765,13.8248848 20.4608295,13.8248848 L26.4516129,13.8248848 C26.8079263,13.8248848 27.0967742,14.1137327 27.0967742,14.4700461 L27.0967742,17.235023 C27.0967742,17.5913364 26.8079263,17.8801843 26.4516129,17.8801843 Z M20.4608295,15.1152074 C20.0542857,15.1152074 19.7235023,15.4459908 19.7235023,15.8525346 C19.7235023,16.2590783 20.0542857,16.5898618 20.4608295,16.5898618 L25.8064516,16.5898618 L25.8064516,15.1152074 L20.4608295,15.1152074 Z" id="Shape"></path>
                            <path d="M19.078341,12.3502304 C18.7220276,12.3502304 18.4331797,12.0613825 18.4331797,11.7050691 L18.4331797,3.93235023 C18.4331797,1.7640553 20.1973272,0 22.3656221,0 L24.6082949,0 C24.9646083,0 25.2534562,0.288847926 25.2534562,0.64516129 C25.2534562,1.00147465 24.9646083,1.29032258 24.6082949,1.29032258 L22.3656221,1.29032258 C20.9087558,1.29032258 19.7235023,2.47548387 19.7235023,3.93235023 L19.7235023,11.7050691 C19.7235023,12.0613825 19.4346544,12.3502304 19.078341,12.3502304 Z" id="Path"></path>
                        </g>
                        <path d="M6.17511521,29.8617512 L0.64516129,29.8617512 C0.288847926,29.8617512 0,29.5729032 0,29.2165899 C0,28.8602765 0.288847926,28.5714286 0.64516129,28.5714286 L6.17511521,28.5714286 C6.53142857,28.5714286 6.8202765,28.8602765 6.8202765,29.2165899 C6.8202765,29.5729032 6.53142857,29.8617512 6.17511521,29.8617512 Z" id="Path"></path>
                        <path d="M0.64516129,32.6267281 C0.288847926,32.6267281 0,32.3378802 0,31.9815668 L0,26.4516129 C0,26.0952995 0.288847926,25.8064516 0.64516129,25.8064516 C1.00147465,25.8064516 1.29032258,26.0952995 1.29032258,26.4516129 L1.29032258,31.9815668 C1.29032258,32.3378802 1.00147465,32.6267281 0.64516129,32.6267281 Z" id="Path"></path>
                    </g>
                </g>
            </g>
        </g>
    </g>
</svg>